name ./resultDataOpenSim/trcMotMarkerGrf/sub06/grf-13-03.mot
datacolumns 19
datarows 10
range 1.09200000 1.12800000
endheader

                time	     ground_force_vx	     ground_force_vy	     ground_force_vz	     ground_force_px	     ground_force_py	     ground_force_pz	   l_ground_force_vx	   l_ground_force_vy	   l_ground_force_vz	   l_ground_force_px	   l_ground_force_py	   l_ground_force_pz	     ground_torque_x	     ground_torque_y	     ground_torque_z	   l_ground_torque_x	   l_ground_torque_y	   l_ground_torque_z	
          1.09200000	          0.00000000	          0.00000000	          0.00000000	          0.00000000	          0.00000000	          0.00000000	        165.10440127	        679.84938196	         25.12933385	          0.09698724	         -0.05000100	         -0.05403200	          0.00000000	          0.00000000	          0.00000000	          0.00000000	         -3.03464063	          0.00000000	
          1.09600000	          0.00000000	          0.00000000	          0.00000000	          0.00000000	          0.00000000	          0.00000000	        171.20443459	        675.95823061	         24.65095453	          0.09762319	         -0.05000097	         -0.05357746	          0.00000000	          0.00000000	          0.00000000	          0.00000000	         -2.94572197	          0.00000000	
          1.10000000	          0.00000000	          0.00000000	          0.00000000	          0.00000000	          0.00000000	          0.00000000	        176.93663661	        669.44325485	         24.08438803	          0.09830063	         -0.05000033	         -0.05307483	          0.00000000	          0.00000000	          0.00000000	          0.00000000	         -2.84136754	          0.00000000	
          1.10400000	          0.00000000	          0.00000000	          0.00000000	          0.00000000	          0.00000000	          0.00000000	        182.20757030	        660.35142061	         23.40051631	          0.09900085	         -0.05000001	         -0.05252554	          0.00000000	          0.00000000	          0.00000000	          0.00000000	         -2.72683727	          0.00000000	
          1.10800000	          0.00000000	          0.00000000	          0.00000000	          0.00000000	          0.00000000	          0.00000000	        186.89784949	        648.69856549	         22.56037201	          0.09968904	         -0.05000000	         -0.05195805	          0.00000000	          0.00000000	          0.00000000	          0.00000000	         -2.60778341	          0.00000000	
          1.11200000	          0.00000000	          0.00000000	          0.00000000	          0.00000000	          0.00000000	          0.00000000	        190.87465945	        634.42973890	         21.52014792	          0.10032283	         -0.05000000	         -0.05141010	          0.00000000	          0.00000000	          0.00000000	          0.00000000	         -2.48877481	          0.00000000	
          1.11600000	          0.00000000	          0.00000000	          0.00000000	          0.00000000	          0.00000000	          0.00000000	        194.00744728	        617.42460220	         20.24814539	          0.10089258	         -0.04999916	         -0.05089420	          0.00000000	          0.00000000	          0.00000000	          0.00000000	         -2.37218792	          0.00000000	
          1.12000000	          0.00000000	          0.00000000	          0.00000000	          0.00000000	          0.00000000	          0.00000000	        196.13675265	        597.48048903	         18.74824987	          0.10143003	         -0.04999900	         -0.05040872	          0.00000000	          0.00000000	          0.00000000	          0.00000000	         -2.25788351	          0.00000000	
          1.12400000	          0.00000000	          0.00000000	          0.00000000	          0.00000000	          0.00000000	          0.00000000	        197.01119477	        574.30095650	         17.07097792	          0.10197373	         -0.04999900	         -0.04996028	          0.00000000	          0.00000000	          0.00000000	          0.00000000	         -2.14368591	          0.00000000	
          1.12800000	         -6.17858860	         70.63968784	          4.95401561	          0.76029407	          0.00000000	          0.05068478	        196.26450171	        547.53442959	         15.29828977	          0.10255591	         -0.04999828	         -0.04955316	          0.00000000	          0.44576390	          0.00000000	          0.00000000	         -2.02633769	          0.00000000	
